<?xml version="1.0" encoding="UTF-8"?>
<svg id="_レイヤー_2" data-name="レイヤー 2" xmlns="http://www.w3.org/2000/svg" xmlns:xlink="http://www.w3.org/1999/xlink" viewBox="0 0 256 256">
  <defs>
    <style>
      .cls-1 {
        fill: none;
      }

      .cls-2 {
        fill: #040000;
      }

      .cls-3 {
        clip-path: url(#clippath-1);
      }

      .cls-4 {
        fill: #fff;
      }

      .cls-5 {
        fill: #bf1a20;
      }

      .cls-6 {
        clip-path: url(#clippath);
      }
    </style>
    <clipPath id="clippath">
      <path class="cls-1" d="M57.9,75.8v113.1h113.1v-113.1H57.9ZM142.1,180.7c-.4.2-.8.5-1.2.7-.9-.4-1.7-.9-2.5-1.4-3.8-2.2-7.2-4.8-10.2-7.7,2.5-.9,4.9-2,7.2-3.3,1.5-.9,2.9-1.9,4.4-3,1.7,1.4,3.4,2.7,5.3,3.8,2.3,1.3,4.8,2.4,7.4,3.3-3.1,2.9-6.6,5.5-10.3,7.6h-.1Z"/>
    </clipPath>
    <clipPath id="clippath-1">
      <path class="cls-1" d="M64.7,60.9v133.2h40.1V60.9h-40.1ZM99,173.5c-1.9,3.5-4.2,6.7-6.9,9.3-1.8-.8-3.6-1.7-5.3-2.7-2.6-1.5-5-3.2-7.3-5,1.3-1,2.6-2.1,3.7-3.3,1.7-1.8,3.1-4,4.2-6.5,1.8,1.6,3.8,3,6,4.3,2,1.2,4.1,2.2,6.2,3-.2.3-.3.6-.5,1l-.1-.1Z"/>
    </clipPath>
  </defs>
  <g id="_レイヤー_2-2" data-name=" レイヤー 2">
    <g>
      <circle class="cls-4" cx="128" cy="128" r="121.7"/>
      <path class="cls-2" d="M128,256C57.4,256,0,198.6,0,128S57.4,0,128,0s128,57.4,128,128-57.4,128-128,128ZM128,12.5c-63.7,0-115.5,51.8-115.5,115.5s51.8,115.5,115.5,115.5,115.5-51.8,115.5-115.5S191.7,12.5,128,12.5Z"/>
    </g>
    <path class="cls-5" d="M66.9,105.1c-4.9,8.4-7.4,17.6-7.4,27.4s2.4,19.4,7.3,27.8c4.9,8.3,11.7,14.9,20.1,19.8,8.4,4.8,17.6,7.3,27.5,7.3s19-2.4,27.4-7.3c8.5-4.9,15.3-11.7,20.2-20.1,4.9-8.4,7.4-17.6,7.4-27.5s-2.6-19-7.6-27.3c-4.9-8.4-11.7-15.2-20.1-20.1-8.4-5-17.6-7.6-27.4-7.6s-19.1,2.6-27.5,7.6c-8.3,4.9-15,11.7-19.9,20.1h0v-.1ZM93.1,95.2c6.4-3.9,13.5-5.9,21.2-5.9s14.8,1.9,21.2,5.8c6.4,3.8,11.5,9.1,15.3,15.7s5.6,13.9,5.6,21.6-1.9,15-5.6,21.6c-3.6,6.5-8.7,11.8-15.1,15.6-6.3,3.7-13.4,5.6-21.1,5.6s-14.8-1.9-21.4-5.8c-6.4-3.8-11.5-9.1-15.3-15.6-3.7-6.5-5.6-13.7-5.6-21.3s1.8-15,5.4-21.6c3.7-6.6,8.9-11.9,15.3-15.7h.1Z"/>
    <path class="cls-2" d="M90.7,150.7c0,9.4-2.3,16.6-7,21.5-4.3,4.8-10.2,7.6-17.5,8.2v12.1c6.9-.3,13.1-2.1,18.5-5.3,5.8-3.2,10.3-8,13.5-14.1s4.9-13.5,4.9-21.9V62.4h-12.5v88.3h.1Z"/>
    <path class="cls-2" d="M192,167.5c-7.2,5.1-15.7,7.8-25.2,7.8s-15.5-1.8-21.8-5.5c-6.2-3.7-11.1-8.9-14.5-15.5-3.3-6.5-5-13.9-5-21.9s1.8-15.1,5.5-21.6c3.7-6.6,8.7-11.9,14.8-15.7,6.2-3.8,13.1-5.8,20.3-5.8s16.7,2.7,24.8,7.9l5-11.7c-4-2.3-8.4-4.3-13.3-5.8-5.2-1.6-10.9-2.4-17-2.4-10.2,0-19.4,2.4-27.5,7.3-8,4.7-14.3,11.4-18.9,19.9-4.5,8.4-6.8,18-6.8,28.6s2.3,19,6.7,27.2c4.5,8.2,11,14.8,19.3,19.6,8.4,4.8,18.2,7.3,29.2,7.3s12-.9,17.2-2.8c4.9-1.8,9.1-3.8,12.5-5.9l-5.2-11.1h0l-.1.1Z"/>
    <g class="cls-6">
      <path class="cls-5" d="M66.9,105.1c-4.9,8.4-7.4,17.6-7.4,27.4s2.4,19.4,7.3,27.8c4.9,8.3,11.7,14.9,20.1,19.8,8.4,4.8,17.6,7.3,27.5,7.3s19-2.4,27.4-7.3c8.5-4.9,15.3-11.7,20.2-20.1,4.9-8.4,7.4-17.6,7.4-27.5s-2.6-19-7.6-27.3c-4.9-8.4-11.7-15.2-20.1-20.1-8.4-5-17.6-7.6-27.4-7.6s-19.1,2.6-27.5,7.6c-8.3,4.9-15,11.7-19.9,20.1h0v-.1ZM93.1,95.2c6.4-3.9,13.5-5.9,21.2-5.9s14.8,1.9,21.2,5.8c6.4,3.8,11.5,9.1,15.3,15.7s5.6,13.9,5.6,21.6-1.9,15-5.6,21.6c-3.6,6.5-8.7,11.8-15.1,15.6-6.3,3.7-13.4,5.6-21.1,5.6s-14.8-1.9-21.4-5.8c-6.4-3.8-11.5-9.1-15.3-15.6-3.7-6.5-5.6-13.7-5.6-21.3s1.8-15,5.4-21.6c3.7-6.6,8.9-11.9,15.3-15.7h.1Z"/>
    </g>
    <g class="cls-3">
      <path class="cls-2" d="M90.7,150.7c0,9.4-2.3,16.6-7,21.5-4.3,4.8-10.2,7.6-17.5,8.2v12.1c6.9-.3,13.1-2.1,18.5-5.3,5.8-3.2,10.3-8,13.5-14.1s4.9-13.5,4.9-21.9V62.4h-12.5v88.3h.1Z"/>
    </g>
  </g>
</svg>